#!OML:ASF I:\Actors\actors\Patient Classification 2\Patient 1\Session 1\actor1.ASF
:FULLY-SPECIFIED
:DEGREES
420
root 0.220734 18.8004 4.06954 24.1067 -9.53175 0.768216
lowerback 44.9361 -4.93606 -0.404035
upperback 10.1629 -5.99384 0.947544
thorax -9.24143 -2.76717 3.83326
lowerneck -27.6113 6.52046 7.44974
upperneck 17.1131 7.57187 -6.47224
head 10.5305 3.1668 -2.25194
rclavicle 4.29375e-014 -2.46493e-014
rhumerus -18.094 26.059 -95.4679
rradius 89.0183
rwrist -63.7574
rhand -34.8847 -49.1225
rfingers 7.12502
rthumb -8.03349 281.05
lclavicle 4.29375e-014 -2.46493e-014
lhumerus 19.7689 -4.27816 89.3351
lradius 60.7618
lwrist 82.1089
lhand -28.1273 -15.5029
lfingers 7.12502
lthumb -1.5089 14.4715
rfemur 0 0 0
rtibia 0
rfoot 0 0
rtoes 0
lfemur -41.0557 8.9091 -21.031
ltibia 30.379
lfoot -14.608 8.57385
ltoes -54.0673
421
root 0.229503 18.8013 4.05543 23.8387 -9.21192 0.375583
lowerback 44.8549 -5.14032 0.463638
upperback 10.0699 -5.86718 0.940164
thorax -9.39451 -2.70941 3.33758
lowerneck -28.1966 6.21355 6.90088
upperneck 17.7486 7.1869 -5.78662
head 10.7817 3.02258 -1.97676
rclavicle 4.77083e-014 -1.98785e-014
rhumerus -16.6819 26.0106 -96.0766
rradius 88.0632
rwrist -63.5608
rhand -34.2334 -47.9187
rfingers 7.12502
rthumb -7.4049 282.231
lclavicle 4.77083e-014 -1.98785e-014
lhumerus 19.7841 -3.73255 89.4298
lradius 61.376
lwrist 82.3585
lhand -27.7991 -17.0254
lfingers 7.12502
lthumb -1.1919 12.951
rfemur 0 0 0
rtibia 0
rfoot 0 0
rtoes 0
lfemur -40.8076 8.71921 -20.432
ltibia 30.5144
lfoot -14.6529 8.5893
ltoes -54.0191
422
root 0.247099 18.8058 4.03451 23.322 -8.51875 -0.869927
lowerback 45.0752 -5.61286 2.28673
upperback 10.004 -5.62395 1.03625
thorax -9.64199 -2.60973 2.43536
lowerneck -28.7013 5.87051 6.42961
upperneck 18.4875 6.72129 -5.06832
head 11.0625 2.85531 -1.71623
rclavicle 1.74931e-014 3.02153e-014
rhumerus -15.2617 26.0633 -96.6787
rradius 87.3112
rwrist -63.2848
rhand -33.9203 -46.8449
rfingers 7.12502
rthumb -7.10259 283.294
lclavicle 1.74931e-014 3.02153e-014
lhumerus 19.7652 -3.22205 89.3395
lradius 62.1948
lwrist 83.0142
lhand -28.0719 -18.3025
lfingers 7.12502
lthumb -1.45539 11.6723
rfemur 0 0 0
rtibia 0
rfoot 0 0
rtoes 0
lfemur -40.1755 8.7097 -18.8545
ltibia 30.6145
lfoot -14.6033 8.45384
ltoes -53.9289
423
root 0.217931 18.8088 4.02663 22.9941 -9.12313 -0.136673
lowerback 44.7615 -4.93561 1.37066
upperback 9.84971 -5.25368 0.896018
thorax -9.70397 -2.43405 2.57733
lowerneck -28.7635 5.41606 6.24169
upperneck 18.7318 6.12235 -4.85355
head 11.1126 2.59631 -1.71622
rclavicle -4.92986e-014 9.14409e-015
rhumerus -13.8821 26.0654 -97.1997
rradius 86.8639
rwrist -62.5301
rhand -34.3422 -46.4355
rfingers 7.12502
rthumb -7.50987 283.718
lclavicle -4.92986e-014 9.14409e-015
lhumerus 19.7402 -2.76065 89.2476
lradius 63.2447
lwrist 83.7836
lhand -28.4672 -18.6486
lfingers 7.12502
lthumb -1.83713 11.3232
rfemur 0 0 0
rtibia 0
rfoot 0 0
rtoes 0
lfemur -39.8501 8.91337 -19.7009
ltibia 30.5552
lfoot -14.6836 8.51306
ltoes -53.9724
424
root 0.202456 18.81 4.01196 22.5569 -9.15088 -0.194076
lowerback 44.5472 -4.65255 1.53779
upperback 9.70091 -4.85207 0.934565
thorax -9.83203 -2.25554 2.3581
lowerneck -28.0951 4.95577 6.41919
upperneck 18.0576 5.57909 -5.42623
head 10.7403 2.30337 -2.05903
rclavicle 5.56597e-015 4.17448e-014
rhumerus -12.4751 26.1611 -97.6692
rradius 86.5376
rwrist -61.2859
rhand -35.2127 -46.2129
rfingers 7.12502
rthumb -8.35001 283.972
lclavicle 5.56597e-015 4.17448e-014
lhumerus 19.5738 -2.21462 89.2
lradius 64.676
lwrist 84.5032
lhand -28.3634 -20.0377
lfingers 7.12502
lthumb -1.73689 9.93499
rfemur 0 0 0
rtibia 0
rfoot 0 0
rtoes 0
lfemur -39.3061 9.01394 -19.5427
ltibia 30.4236
lfoot -14.6217 8.4877
ltoes -54.0638
425
root 0.172995 18.8092 4.00258 22.0842 -9.09433 -0.037362
lowerback 44.1857 -4.32123 1.44549
upperback 9.55809 -4.50246 0.993838
thorax -9.8949 -2.09892 2.30851
lowerneck -27.2891 4.69114 6.85194
upperneck 17.3097 5.26583 -6.23858
head 10.3484 2.10542 -2.48216
rclavicle 3.10104e-014 -7.95139e-015
rhumerus -10.932 26.4728 -98.1903
rradius 86.1462
rwrist -59.7884
rhand -35.9804 -45.3494
rfingers 7.12502
rthumb -9.09089 284.867
lclavicle 3.10104e-014 -7.95139e-015
lhumerus 19.1454 -1.47481 89.05
lradius 66.6844
lwrist 85.2486
lhand -28.0631 -21.216
lfingers 7.12502
lthumb -1.44688 8.75887
rfemur 0 0 0
rtibia 0
rfoot 0 0
rtoes 0
lfemur -38.6773 8.98868 -19.5311
ltibia 30.1095
lfoot -14.4345 8.4746
ltoes -54.1067
